<svg width="1364" height="342" viewBox="0 0 1364 342" fill="none" xmlns="http://www.w3.org/2000/svg">
<path d="M0 340.961V228.694V226.616V115.387V113.309V0.00205659H113.493H115.575H226.987H229.069H340.48V0.00102829H453.973H456.054H567.467H569.548H680.96H683.041H794.453H796.534H907.947H910.028H1021.44V0H1134.93H1137.01H1248.43H1250.51H1364V113.307V115.385V226.614V228.692V341.999H1362.96H1250.51H1248.43H1137.02H1134.93H1023.52V342H910.029H907.948H796.535H794.454H683.042H682.002H680.962H569.55H567.469H456.056H453.975H342.563V342.001H229.071H226.989H115.577H113.495H0.00205997V340.962L0 340.961ZM683.04 2.07921V56.6548H794.452V2.07921H683.04ZM683.04 58.732V113.308H794.452V58.732H683.04ZM683.04 115.385V226.614H737.706V115.385H683.04ZM683.04 228.692V283.268H794.452V228.692H683.04ZM683.04 285.345V339.921H794.452V285.345H683.04ZM1023.52 2.07715V113.306H1078.18V2.07715H1023.52ZM1023.52 115.384V115.385V169.96H1134.93V115.384H1023.52ZM1023.52 172.038V226.613H1134.93V172.038H1023.52ZM1023.52 228.69V228.691V339.919H1078.18V228.69H1023.52ZM1248.42 58.7299H1137.01V113.306H1248.42V58.7299ZM1137.01 56.6517H1248.42V2.07612H1137.01V56.6517ZM1080.27 2.07612V113.305H1134.93V2.07612H1080.27ZM1361.92 172.037H1250.51V226.612H1361.92V172.037ZM1250.51 169.958H1361.92V115.382H1250.51V169.958ZM1305.17 113.305V2.07612H1250.51V113.305H1305.17ZM1307.25 2.07612V113.305H1361.92V2.07612H1307.25ZM1191.68 226.612V115.383H1137.01V226.612H1191.68ZM1193.76 115.383V226.612H1248.43V115.383H1193.76ZM1080.27 228.69V339.919H1134.93V228.69H1080.27ZM1248.43 285.343H1137.01V339.919H1248.43V285.343ZM1137.01 283.265H1248.43V228.689H1137.01V283.265ZM1305.17 339.918V228.689H1250.51V339.918H1305.17ZM1307.26 228.689V339.918H1361.92V228.689H1307.26ZM964.695 226.612V115.383H910.029V226.612H964.695ZM966.776 115.383V226.612H1021.44V115.383H966.776ZM910.03 56.6517H1021.44V2.07612H910.03V56.6517ZM1021.44 58.7299H910.03V113.306H1021.44V58.7299ZM851.202 339.919V228.69H796.536V339.919H851.202ZM853.283 228.69V339.919H907.95V228.69H853.283ZM910.03 283.266H1021.44V228.69H910.03V283.266ZM1021.44 285.344H910.03V339.92H1021.44V285.344ZM851.202 113.306V2.07715H796.536V113.306H851.202ZM853.283 2.07715V113.306H907.95V2.07715H853.283ZM796.537 169.959H907.95V115.384H796.537V169.959ZM907.95 172.038H796.537V226.614H907.95V172.038ZM739.79 115.385V226.614H794.456V115.385H739.79ZM342.565 2.07818V113.307H397.23V2.07818H342.565ZM342.565 115.385V115.386V169.961H453.976V115.385H342.565ZM342.565 172.039V226.614H453.976V172.039H342.565ZM342.565 228.691V228.692V339.92H397.23V228.691H342.565ZM567.47 58.731H456.057V113.307H567.47V58.731ZM456.057 56.6528H567.47V2.07715H456.057V56.6528ZM399.312 2.07715V113.306H453.977V2.07715H399.312ZM680.963 172.038H569.551V226.613H680.963V172.038ZM569.551 169.959H680.963V115.383H569.551V169.959ZM624.217 113.306V2.07715H569.551V113.306H624.217ZM626.298 2.07715V113.306H680.964V2.07715H626.298ZM510.724 226.613V115.384H456.058V226.613H510.724ZM512.805 115.384V226.613H567.472V115.384H512.805ZM399.313 228.691V339.92H453.978V228.691H399.313ZM567.472 285.344H456.06V339.92H567.472V285.344ZM456.06 283.266H567.472V228.69H456.06V283.266ZM624.219 339.919V228.69H569.553V339.919H624.219ZM626.3 228.69V339.919H680.966V228.69H626.3ZM283.74 226.613V115.384H229.075V226.613H283.74ZM285.822 115.384V226.613H340.487V115.384H285.822ZM229.076 56.6528H340.487V2.07715H229.076V56.6528ZM340.487 58.731H229.076V113.307H340.487V58.731ZM170.247 339.92V228.691H115.582V339.92H170.247ZM172.329 228.691V339.92H226.995V228.691H172.329ZM229.076 283.267H340.487V228.691H229.076V283.267ZM340.487 285.345H229.076V339.921H340.487V285.345ZM170.247 113.307V2.07818H115.582V113.307H170.247ZM172.329 2.07818V113.307H226.995V2.07818H172.329ZM115.583 169.96H226.995V115.385H115.583V169.96ZM226.995 172.039H115.583V226.615H226.995V172.039ZM2.08984 56.6548H113.501V2.07921H2.08984V56.6548ZM113.501 58.733H2.08984V113.309H113.501V58.733ZM56.7552 226.616V115.387H2.08984V226.616H56.7552ZM58.8368 115.387V226.616H113.502V115.387H58.8368ZM2.09087 283.27H113.502V228.694H2.09087V283.27ZM113.502 285.348H2.09087V339.924H113.502V285.348Z" fill="#D2AE6D" fill-opacity="0.2"/>
</svg>
