<svg width="68" height="63" viewBox="0 0 68 63" fill="none" xmlns="http://www.w3.org/2000/svg">
<path d="M20.9414 21.1483H65.732C66.5928 21.1483 67.2013 21.9841 66.949 22.805L61.3094 43.9543C61.1461 44.4916 60.6563 44.8647 60.0924 44.8647H25.2305C24.6368 44.8647 24.1174 44.4468 23.9838 43.8647L19.6947 22.7155C19.5166 21.9095 20.1251 21.1483 20.9414 21.1483Z" fill="#7C6844"/>
<path d="M55.3879 4.02891L28.1098 0.0139844C27.4123 -0.0904932 26.7592 0.402044 26.6554 1.10354L22.4553 29.8797C22.3514 30.5811 22.8412 31.2379 23.5387 31.3423L50.8168 35.3573C51.5143 35.4617 52.1673 34.9692 52.2712 34.2677L56.4713 5.4916C56.5752 4.7901 56.0854 4.13339 55.3879 4.02891Z" fill="#D2AE6D"/>
<path d="M46.78 56.4767C46.78 54.9543 47.4033 53.5662 48.3828 52.5662L48.4718 52.4916C49.4662 51.5364 50.8019 50.9543 52.2712 50.9543C53.785 50.9543 55.1652 51.5812 56.1596 52.5662L56.2338 52.6558C57.1836 53.6558 57.7624 54.9991 57.7624 56.4767C57.7624 57.9991 57.1391 59.3722 56.1447 60.3871C55.1355 61.4021 53.7701 62.014 52.2563 62.014C50.7425 62.014 49.3623 61.3871 48.368 60.4021C47.3736 59.4021 46.7651 58.014 46.7651 56.4916L46.78 56.4767ZM12.0813 17.2677L9.82544 8.80503L0.59423 2.93936C0.000583042 2.56623 -0.177511 1.77518 0.193518 1.17817C0.564547 0.581153 1.35113 0.402048 1.94478 0.775183L11.5619 6.87966C11.8438 7.04384 12.0665 7.3125 12.1555 7.65578L14.2778 15.6409H62.9717C63.6692 15.6409 64.248 16.2229 64.248 16.9244C64.248 17.0588 64.2183 17.208 64.1886 17.3274L57.985 40.6707C57.8366 41.2379 57.3172 41.6259 56.7532 41.6259H19.7839L16.9344 43.6558V47.2379H61.1907C61.8883 47.2379 62.4671 47.82 62.4671 48.5215C62.4671 49.2229 61.8883 49.805 61.1907 49.805H15.658C14.9605 49.805 14.3817 49.2229 14.3817 48.5215V42.9991C14.3965 42.5961 14.5746 42.208 14.9308 41.9543L18.0623 39.7155L12.0813 17.2528V17.2677ZM55.7737 39.0588L61.3095 18.2229H14.9605L20.5111 39.0588H55.7737ZM18.3888 56.4767C18.3888 54.9543 19.0121 53.5662 19.9916 52.5662C20.986 51.5662 22.3662 50.9543 23.88 50.9543C25.3938 50.9543 26.7592 51.5812 27.7684 52.5662C28.7628 53.5662 29.3861 54.9543 29.3861 56.4767C29.3861 57.9991 28.7628 59.3871 27.7833 60.3871L27.6942 60.4618C26.6998 61.417 25.3641 61.9991 23.8949 61.9991C22.3811 61.9991 21.0008 61.3722 20.0065 60.3871L19.9323 60.2976C18.9824 59.2976 18.4036 57.9543 18.4036 56.4767H18.3888ZM21.8023 54.3871C21.268 54.9244 20.9415 55.6558 20.9415 56.4767C20.9415 57.2677 21.2383 57.9841 21.7429 58.5215L21.8023 58.5812C22.3365 59.1185 23.0638 59.4468 23.88 59.4468C24.6666 59.4468 25.379 59.1334 25.9133 58.6409L25.9726 58.5812C26.5069 58.0438 26.8334 57.3125 26.8334 56.4916C26.8334 55.6707 26.5069 54.9394 25.9726 54.4021C25.4383 53.8647 24.7111 53.5364 23.8949 53.5364C23.0786 53.5364 22.3514 53.8647 21.8171 54.4021L21.8023 54.3871ZM50.1934 54.3871C49.6591 54.9244 49.3326 55.6558 49.3326 56.4767C49.3326 57.2976 49.6591 58.0438 50.1934 58.5662C50.7277 59.1035 51.4549 59.4319 52.2712 59.4319C53.0875 59.4319 53.8295 59.1035 54.3489 58.5662C54.8832 58.0289 55.2097 57.2827 55.2097 56.4618C55.2097 55.6707 54.9129 54.9543 54.4083 54.4319L54.3489 54.3722C53.8147 53.8349 53.0875 53.5065 52.2712 53.5065C51.4846 53.5065 50.7722 53.805 50.2379 54.3125L50.1786 54.3722L50.1934 54.3871Z" fill="white"/>
</svg>
