<svg width="78" height="73" viewBox="0 0 78 73" fill="none" xmlns="http://www.w3.org/2000/svg">
<path d="M24.3183 24.5586H76.3316C77.3312 24.5586 78.0378 25.5292 77.7449 26.4825L71.1958 51.0421C71.0062 51.6661 70.4375 52.0994 69.7826 52.0994H29.2991C28.6097 52.0994 28.0065 51.6141 27.8514 50.9381L22.8706 26.3785C22.6638 25.4425 23.3704 24.5586 24.3183 24.5586Z" fill="#7C6844"/>
<path d="M64.3193 4.67859L32.6425 0.0162395C31.8325 -0.105086 31.0742 0.466875 30.9535 1.28149L26.0762 34.6979C25.9556 35.5125 26.5243 36.2751 27.3343 36.3964L59.0111 41.0588C59.8211 41.1801 60.5794 40.6081 60.7 39.7935L65.5774 6.37714C65.698 5.56253 65.1293 4.79991 64.3193 4.67859Z" fill="#D2AE6D"/>
<path d="M54.3234 65.5838C54.3234 63.8159 55.0472 62.204 56.1847 61.0428L56.2881 60.9561C57.4428 59.8468 58.9939 59.1709 60.7001 59.1709C62.458 59.1709 64.0608 59.8988 65.2155 61.0428L65.3017 61.1467C66.4047 62.308 67.0768 63.8679 67.0768 65.5838C67.0768 67.3517 66.353 68.9462 65.1983 70.1248C64.0264 71.3034 62.4408 72.014 60.6829 72.014C58.925 72.014 57.3222 71.2861 56.1675 70.1421C55.0128 68.9809 54.3062 67.369 54.3062 65.6011L54.3234 65.5838ZM14.0295 20.0522L11.4098 10.2249L0.690052 3.41335C0.000677059 2.98005 -0.206135 2.06145 0.224724 1.36816C0.655583 0.674875 1.569 0.466889 2.25838 0.900193L13.4262 7.98904C13.7537 8.1797 14.0122 8.49167 14.1156 8.89031L16.5801 18.163H73.1261C73.9361 18.163 74.6083 18.839 74.6083 19.6536C74.6083 19.8096 74.5738 19.9829 74.5393 20.1215L67.3353 47.229C67.163 47.8876 66.5598 48.3383 65.9049 48.3383H22.9741L19.6651 50.6955V54.8552H71.058C71.868 54.8552 72.5401 55.5311 72.5401 56.3457C72.5401 57.1603 71.868 57.8363 71.058 57.8363H18.1829C17.3729 57.8363 16.7008 57.1603 16.7008 56.3457V49.9328C16.718 49.4649 16.9248 49.0142 17.3385 48.7196L20.9749 46.1198L14.0295 20.0349V20.0522ZM64.7674 45.3572L71.1959 21.1615H17.3729L23.8186 45.3572H64.7674ZM21.3541 65.5838C21.3541 63.8159 22.0779 62.204 23.2154 61.0428C24.3701 59.8815 25.9729 59.1709 27.7308 59.1709C29.4887 59.1709 31.0742 59.8988 32.2462 61.0428C33.4009 62.204 34.1247 63.8159 34.1247 65.5838C34.1247 67.3517 33.4009 68.9635 32.2634 70.1248L32.16 70.2115C31.0053 71.3207 29.4542 71.9967 27.748 71.9967C25.9901 71.9967 24.3873 71.2687 23.2326 70.1248L23.1464 70.0208C22.0434 68.8596 21.3713 67.2997 21.3713 65.5838H21.3541ZM25.318 63.1573C24.6975 63.7812 24.3184 64.6305 24.3184 65.5838C24.3184 66.5024 24.6631 67.3343 25.249 67.9583L25.318 68.0276C25.9384 68.6516 26.7829 69.0329 27.7308 69.0329C28.6442 69.0329 29.4714 68.6689 30.0919 68.0969L30.1608 68.0276C30.7813 67.4036 31.1604 66.5544 31.1604 65.6011C31.1604 64.6478 30.7813 63.7986 30.1608 63.1746C29.5404 62.5506 28.6959 62.1693 27.748 62.1693C26.8001 62.1693 25.9556 62.5506 25.3352 63.1746L25.318 63.1573ZM58.2873 63.1573C57.6669 63.7812 57.2877 64.6305 57.2877 65.5838C57.2877 66.537 57.6669 67.4037 58.2873 68.0103C58.9077 68.6342 59.7522 69.0155 60.7001 69.0155C61.648 69.0155 62.5097 68.6342 63.1129 68.0103C63.7334 67.3863 64.1125 66.5197 64.1125 65.5664C64.1125 64.6478 63.7678 63.8159 63.1819 63.2093L63.1129 63.1399C62.4925 62.516 61.648 62.1347 60.7001 62.1347C59.7867 62.1347 58.9594 62.4813 58.339 63.0706L58.2701 63.1399L58.2873 63.1573Z" fill="black"/>
</svg>
