<svg width="129" height="104" viewBox="0 0 129 104" fill="none" xmlns="http://www.w3.org/2000/svg">
<path fill-rule="evenodd" clip-rule="evenodd" d="M61.0359 5.25191C63.4284 6.15835 70.5801 11.9547 73.1437 13.8524L96.4407 31.227C97.9101 32.3173 107.394 38.4527 107.394 40.3604L107.391 98.2606H19.8497C19.8439 81.1129 19.3292 54.8462 19.923 38.7817L61.0373 5.25191H61.0359ZM27.6857 12.2923L36.4392 12.377C36.4464 13.94 36.6218 16.8719 36.455 18.2768C36.1459 20.8668 29.7418 25.0428 27.7059 26.5195L27.6857 12.2937V12.2923ZM23.0862 29.8207C22.0783 32.2039 5.89707 44.5679 3.51748 46.4957C2.09404 47.6507 -0.83621 49.376 0.227774 51.5551C2.52109 56.2511 10.2062 45.348 15.1883 43.1444C15.5492 50.4491 14.6218 100.446 15.6929 101.878C18.6103 103.876 34.1214 102.852 39.0718 102.852C51.1423 102.852 107.647 103.535 111.541 102.277C113.161 96.2337 111.063 54.783 112.094 43.0524L123.753 51.637C127.381 54.3463 130.884 51.0998 125.91 47.4539C118.819 42.2552 63.1135 0.136469 61.6757 0C58.7411 0.534384 44.6592 13.1614 41.1911 15.6221C40.6189 10.9621 42.7598 7.67098 37.3119 7.67098C20.5585 7.67098 23.0819 6.68558 23.0847 16.7728C23.0862 21.1226 23.0847 25.4723 23.0847 29.8221L23.0862 29.8207Z" fill="#D2AE6D" fill-opacity="0.678431"/>
<path fill-rule="evenodd" clip-rule="evenodd" d="M43.5174 31.3347C47.4513 31.6866 49.8007 33.4809 51.1939 36.2778C53.7302 41.3702 49.7992 40.2225 54.8474 45.177L79.7087 70.023C84.1142 74.5351 84.1745 70.8188 88.7482 73.5439C91.1724 74.9861 92.928 77.3708 93.1968 80.9578C90.9553 79.5845 89.759 76.9743 87.2946 76.0951C85.2917 76.7215 79.4887 82.5307 78.8532 84.526C79.7173 86.9566 82.3413 88.215 83.7173 90.4215C79.9287 90.1558 77.4441 88.192 76.153 85.6178C73.5045 80.3343 77.3636 81.462 72.5182 76.7057L47.6612 51.8539C43.0932 47.168 43.4283 50.9173 38.6806 48.2799C35.9976 46.7888 34.3787 44.5938 34.1702 40.6635L39.0702 45.0893C41.0242 44.4903 47.227 38.2932 47.9675 36.2017L43.5174 31.3333V31.3347ZM61.6914 47.8734C58.534 44.7188 55.5534 42.7177 55.1565 39.8648C54.5268 35.3268 53.1062 32.4854 50.0753 30.3765C47.0573 28.2778 42.1098 27.4001 38.5785 29.2029C38.4836 31.7556 42.6346 35.0151 44.0595 36.2663C43.2744 37.9139 40.6403 40.5586 38.9811 41.3357C37.6195 39.7742 34.6489 35.9201 31.9243 35.8583C30.14 39.7886 30.8718 44.5866 33.3348 47.6018C35.9948 50.8598 37.9531 51.5436 43.0501 52.4745C45.2385 52.8724 45.9617 54.3089 47.3377 55.6909L65.9171 74.2665C69.9272 78.2715 71.7159 78.9308 72.1314 82.5134C73.4096 93.5258 85.3478 95.4134 88.6749 92.0548C88.3485 89.2048 83.9977 87.2525 82.7123 84.4815L87.2946 80.001C89.9891 81.2766 91.979 85.6035 94.8288 85.9109C97.9244 82.8066 96.9697 70.9007 84.8 69.3464C82.0149 68.9916 81.9804 68.1627 80.2795 66.4403L61.69 47.8734H61.6914Z" fill="#D2AE6D" fill-opacity="0.678431"/>
</svg>
