<svg width="107" height="53" viewBox="0 0 107 53" fill="none" xmlns="http://www.w3.org/2000/svg">
<path d="M32.3101 21.9079H32.3856C32.5362 21.2663 38.153 5.1669 38.3036 3.58253C38.3416 3.28077 38.0774 2.64024 37.7388 2.1884C37.399 1.73497 36.9093 1.47181 36.2314 1.47181H35.2889C35.0997 1.47181 35.0627 1.39675 35.0627 1.16951V0.265295C35.0627 0.114152 35.1002 0.000516089 35.3269 0.000516089C35.6656 0.000516089 36.9853 0.114133 39.9255 0.114133C43.0919 0.114133 44.5242 0.000516089 44.9009 0.000516089C45.1265 0.000516089 45.1651 0.114152 45.1651 0.265295V1.20703C45.1651 1.35817 45.1265 1.47127 44.9009 1.47127H43.393C42.451 1.47127 42.1113 2.30045 42.3374 2.97954L48.2178 21.9074H48.2928C48.7076 20.7009 54.1727 4.78902 54.1727 2.63972C54.1727 2.03673 53.871 1.47127 52.8545 1.47127H51.8369C51.6097 1.47127 51.5728 1.35816 51.5728 1.13145V0.265295C51.5728 0.114152 51.6097 0.000516089 51.8744 0.000516089C52.2511 0.000516089 53.5709 0.114133 55.9078 0.114133C58.0185 0.114133 59.1116 0.000516089 59.4127 0.000516089C59.6399 0.000516089 59.6774 0.0755729 59.6774 0.265295V1.20703C59.6774 1.35817 59.6774 1.47127 59.4127 1.47127H58.5088C57.8679 1.47127 57.3396 1.88559 57.0009 2.48964C56.6992 3.01706 48.8206 24.7722 48.0667 26.5828C47.8786 26.9971 47.6895 27.5626 47.2747 27.5626C46.823 27.5626 46.6339 27.2609 46.4463 26.7329L39.4722 6.03305H39.3972C39.058 7.05142 32.1981 26.4317 31.9714 26.8465C31.7823 27.2228 31.5562 27.5626 31.2175 27.5626C30.9153 27.5626 30.6897 27.4115 30.5386 26.9591L22.1327 2.82891C21.7555 1.77249 21.2277 1.47127 20.5118 1.47127H19.23C19.0419 1.47127 19.0039 1.32014 19.0039 1.16899V0.264754C19.0039 0.0750311 19.042 0 19.3056 0C19.6073 0 20.7754 0.113617 23.3389 0.113617C26.053 0.113617 27.5989 0 27.9756 0C28.2398 0 28.2773 0.113611 28.2773 0.226176V1.16845C28.2773 1.35764 28.2398 1.47075 27.9756 1.47075H27.3347C26.3552 1.47075 26.0155 1.99869 26.2416 2.8284L32.3101 21.9069V21.9079Z" fill="#282829"/>
<path d="M67.8966 13.1601C67.8966 13.6505 67.9341 20.0603 67.9711 22.3978C67.9711 23.1519 68.1222 23.7554 68.6125 24.5096C69.2158 25.3012 70.7232 25.7156 72.6083 25.7156C76.4525 25.7156 79.5808 24.0561 81.4659 21.6436C83.0493 19.6835 84.218 16.5909 84.218 13.1601C84.218 10.2196 82.9357 6.82629 81.1272 4.8276C79.1671 2.67882 75.8502 1.20806 71.6657 1.20806C70.8368 1.20806 69.2914 1.20807 68.6494 1.5854C68.1222 1.92415 67.9711 2.52767 67.9341 3.3579C67.8966 4.94069 67.8966 9.88087 67.8966 10.4833V13.1606V13.1601ZM64.4286 9.503C64.4286 8.52268 64.316 3.16871 64.2405 2.52767C64.1274 1.62239 63.6376 1.47178 62.6201 1.47178H60.5463C60.3572 1.47178 60.2452 1.43426 60.2452 1.20754V0.189686C60.2452 0.0385426 60.3572 0.000488281 60.5088 0.000488281C60.9986 0.000488281 62.6576 0.114105 66.05 0.114105C67.0296 0.114105 70.7998 0.000488281 71.6663 0.000488281C76.5291 0.000488281 80.6004 0.565968 83.9174 3.39437C86.3667 5.50562 88.1018 8.63471 88.1018 13.0089C88.1018 17.345 86.8576 20.2099 84.3701 22.9252C80.751 26.9221 75.549 26.9221 72.6468 26.9221C70.2725 26.9221 67.4073 26.8095 65.7108 26.8095C62.4315 26.8095 60.9236 26.9221 60.3952 26.9221C60.2077 26.9221 60.1316 26.847 60.1316 26.6584V25.678C60.1316 25.5264 60.2452 25.4518 60.4338 25.4518H62.9587C63.6746 25.4518 64.0899 25.1501 64.1644 24.5466C64.2785 23.7549 64.4291 15.2713 64.4291 12.3303V9.503H64.4286Z" fill="#282829"/>
<path d="M5.51795 46.4557H5.54913C5.61147 46.1898 7.93985 39.5152 8.0022 38.8588C8.01805 38.7341 7.90816 38.4678 7.76815 38.2802C7.62708 38.0926 7.4242 37.9837 7.14312 37.9837H6.75215C6.67448 37.9837 6.65864 37.952 6.65864 37.859V37.4832C6.65864 37.4209 6.67396 37.3738 6.768 37.3738C6.90854 37.3738 7.45537 37.4208 8.67372 37.4208C9.98664 37.4208 10.5805 37.3738 10.7369 37.3738C10.8309 37.3738 10.8462 37.4209 10.8462 37.4832V37.8743C10.8462 37.9366 10.8309 37.9837 10.7369 37.9837H10.1113C9.72088 37.9837 9.57982 38.3272 9.67386 38.6089L12.1116 46.4557H12.1433C12.315 45.9552 14.5811 39.3588 14.5811 38.4678C14.5811 38.2173 14.4558 37.9837 14.0342 37.9837H13.6121C13.518 37.9837 13.5027 37.9367 13.5027 37.8431V37.4827C13.5027 37.4203 13.518 37.3733 13.6274 37.3733C13.7838 37.3733 14.3306 37.4203 15.2991 37.4203C16.174 37.4203 16.6278 37.3733 16.7531 37.3733C16.8466 37.3733 16.8619 37.405 16.8619 37.4827V37.8737C16.8619 37.9361 16.8619 37.9832 16.7531 37.9832H16.3779C16.1122 37.9832 15.8935 38.1544 15.7524 38.4049C15.6272 38.6237 12.361 47.6431 12.0487 48.3931C11.9705 48.5653 11.8923 48.8 11.7206 48.8C11.5336 48.8 11.4544 48.6753 11.3772 48.4559L8.48563 39.8751H8.45446C8.31339 40.2968 5.46988 48.3307 5.37583 48.503C5.29817 48.6594 5.20412 48.8005 5.06306 48.8005C4.93784 48.8005 4.84433 48.7381 4.78198 48.55L1.29706 38.5465C1.14068 38.1089 0.921947 37.9842 0.62555 37.9842H0.0940456C0.01638 37.9842 0 37.9219 0 37.8595V37.4837C0 37.406 0.0158494 37.3743 0.124687 37.3743C0.249903 37.3743 0.73439 37.4214 1.79688 37.4214C2.92171 37.4214 3.56311 37.3743 3.71897 37.3743C3.82886 37.3743 3.84418 37.4214 3.84418 37.4684V37.8595C3.84418 37.9372 3.82886 37.9842 3.71897 37.9842H3.45321C3.04692 37.9842 2.90639 38.203 3.00043 38.5465L5.5169 46.4562L5.51795 46.4557Z" fill="#282829"/>
<path d="M17.9604 39.1717C17.9604 38.7806 18.2885 38.3589 18.9135 38.3589C19.4603 38.3589 19.7261 38.7806 19.7261 39.1241C19.7261 39.531 19.445 39.9839 18.8195 39.9839C18.4761 39.9839 17.9604 39.6716 17.9604 39.1717ZM18.6636 43.9385C18.6636 43.4074 18.5696 43.1263 17.7882 43.0015C17.6793 42.9857 17.6476 42.954 17.6476 42.8916V42.751C17.6476 42.704 17.6793 42.6728 17.7575 42.6416C18.2568 42.454 18.8506 42.2041 19.4445 41.8754C19.5692 41.813 19.6484 41.7818 19.742 41.7818C19.8196 41.7818 19.8355 41.86 19.8196 41.9684C19.7884 42.2347 19.7884 43.2187 19.7884 44.5167V46.2205C19.7884 46.8298 19.7884 47.3937 19.8032 47.5649C19.8349 47.8625 19.8814 47.9713 20.0537 47.9713H20.7727C20.898 47.9713 20.9291 48.0184 20.9291 48.1119V48.3782C20.9291 48.4876 20.898 48.5347 20.7881 48.5347C20.6628 48.5347 19.9438 48.4876 19.2876 48.4876C18.3809 48.4876 17.7723 48.5347 17.6001 48.5347C17.5224 48.5347 17.4749 48.503 17.4749 48.4099V48.0971C17.4749 48.0036 17.5224 47.9718 17.6318 47.9718H18.3973C18.569 47.9718 18.6314 47.9095 18.6472 47.6595C18.6631 47.1902 18.6631 46.7056 18.6631 46.2374V43.939L18.6636 43.9385Z" fill="#282829"/>
<path d="M23.8677 43.8296C23.8677 44.6429 23.8677 47.0031 23.8835 47.4872C23.8983 47.7535 23.9612 47.9718 24.2893 47.9718H24.993C25.1336 47.9718 25.1647 48.0188 25.1647 48.1129V48.3787C25.1647 48.4723 25.1331 48.5352 25.0712 48.5352C24.9613 48.5352 24.274 48.4881 23.305 48.4881C22.3043 48.4881 21.6798 48.5352 21.5393 48.5352C21.4611 48.5352 21.4299 48.4723 21.4299 48.3787V48.1129C21.4299 48.0035 21.4611 47.9718 21.6328 47.9718H22.3831C22.5548 47.9718 22.7112 47.8629 22.727 47.5818C22.7418 47.0967 22.7418 44.4083 22.7418 43.502V42.5169C22.7418 41.4066 22.727 39.985 22.6953 39.5786C22.6636 39.0469 22.4137 38.7975 21.9139 38.6411L21.6011 38.5317C21.5234 38.5 21.5076 38.4846 21.5076 38.454V38.3287C21.5076 38.2822 21.5541 38.251 21.6481 38.2193C22.1955 37.9688 22.8982 37.6877 23.4767 37.3125C23.6172 37.2184 23.7108 37.1877 23.8048 37.1877C23.9142 37.1877 23.9459 37.266 23.9295 37.4689C23.9142 38.3287 23.8672 41.5799 23.8672 42.4397V43.8307L23.8677 43.8296Z" fill="#282829"/>
<path d="M27.947 43.8296C27.947 44.6429 27.947 47.0031 27.9629 47.4872C27.9777 47.7535 28.0405 47.9718 28.3692 47.9718H29.0729C29.2135 47.9718 29.2441 48.0188 29.2441 48.1129V48.3787C29.2441 48.4723 29.2129 48.5352 29.1506 48.5352C29.0412 48.5352 28.3533 48.4881 27.3843 48.4881C26.3842 48.4881 25.7592 48.5352 25.6186 48.5352C25.5405 48.5352 25.5093 48.4723 25.5093 48.3787V48.1129C25.5093 48.0035 25.5405 47.9718 25.7127 47.9718H26.4624C26.6341 47.9718 26.7905 47.8629 26.8063 47.5818C26.8211 47.0967 26.8211 44.4083 26.8211 43.502V42.5169C26.8211 41.4066 26.8063 39.985 26.7746 39.5786C26.7429 39.0469 26.493 38.7975 25.9932 38.6411L25.681 38.5317C25.6028 38.5 25.5869 38.4846 25.5869 38.454V38.3287C25.5869 38.2822 25.6334 38.251 25.7275 38.2193C26.2748 37.9688 26.9775 37.6877 27.5561 37.3125C27.6966 37.2184 27.7906 37.1877 27.8842 37.1877C27.9935 37.1877 28.0252 37.266 28.0088 37.4689C27.9935 38.3287 27.9465 41.5799 27.9465 42.4397V43.8307L27.947 43.8296Z" fill="#282829"/>
<path d="M30.2136 39.1717C30.2136 38.7806 30.5422 38.3589 31.1672 38.3589C31.714 38.3589 31.9793 38.7806 31.9793 39.1241C31.9793 39.531 31.6987 39.9839 31.0732 39.9839C30.7292 39.9839 30.2136 39.6716 30.2136 39.1717ZM30.9168 43.9385C30.9168 43.4074 30.8227 43.1263 30.0419 43.0015C29.9325 42.9857 29.9013 42.954 29.9013 42.8916V42.751C29.9013 42.704 29.9325 42.6728 30.0102 42.6416C30.5105 42.454 31.1043 42.2041 31.6982 41.8754C31.8229 41.813 31.9016 41.7818 31.9946 41.7818C32.0723 41.7818 32.0886 41.86 32.0723 41.9684C32.0411 42.2347 32.0411 43.2187 32.0411 44.5167V46.2205C32.0411 46.8298 32.0411 47.3937 32.0564 47.5649C32.0881 47.8625 32.1346 47.9713 32.3068 47.9713H33.0254C33.1506 47.9713 33.1818 48.0184 33.1818 48.1119V48.3782C33.1818 48.4876 33.1506 48.5347 33.0412 48.5347C32.916 48.5347 32.1975 48.4876 31.5408 48.4876C30.6347 48.4876 30.025 48.5347 29.8532 48.5347C29.775 48.5347 29.728 48.503 29.728 48.4099V48.0971C29.728 48.0036 29.775 47.9718 29.8849 47.9718H30.6505C30.8217 47.9718 30.8846 47.9095 30.9004 47.6595C30.9157 47.1902 30.9157 46.7056 30.9157 46.2374V43.939L30.9168 43.9385Z" fill="#282829"/>
<path d="M37.6061 45.0487C37.0434 45.4704 35.5117 45.7833 35.5117 47.0807C35.5117 47.6594 35.8557 47.9405 36.3249 47.9405C36.7771 47.9405 37.6061 47.3941 37.6061 46.9713V45.0487ZM38.7467 46.6273C38.7467 47.5183 38.9343 47.8 39.2159 47.8C39.4658 47.8 39.6845 47.6747 39.7627 47.5653C39.8256 47.4876 39.8568 47.4559 39.9191 47.503L40.075 47.6277C40.1225 47.6747 40.1532 47.7529 40.0602 47.9088C39.935 48.1435 39.6375 48.6751 38.8408 48.6751C38.2781 48.6751 37.8724 48.2682 37.7308 47.6277H37.6996C37.3715 48.0182 36.8558 48.3469 36.1521 48.5816C35.8557 48.6756 35.5735 48.6757 35.2307 48.6757C34.855 48.6757 34.2929 48.3628 34.2929 47.3782C34.2929 46.659 34.621 46.0343 35.8557 45.4868C36.5589 45.174 37.3715 44.7988 37.6214 44.58V43.5796C37.5897 43.3137 37.5749 42.9079 37.4027 42.7039C37.2309 42.5009 36.9187 42.3604 36.4654 42.3604C36.1526 42.3604 35.6681 42.4856 35.4499 42.6886C35.2312 42.892 35.3717 43.1267 35.3717 43.4078C35.3717 43.9548 35.1842 44.2988 34.5433 44.2988C34.2934 44.2988 34.1687 44.1577 34.1687 43.7984C34.1687 43.2984 34.6062 42.7044 35.2465 42.3297C35.9032 41.9386 36.4501 41.7822 37.1533 41.7822C37.8877 41.7822 38.1841 42.0015 38.4033 42.205C38.7314 42.5332 38.7467 42.8926 38.7467 43.3148V46.6283V46.6273Z" fill="#282829"/>
<path d="M46.0145 44.4861C46.0145 43.3293 45.7958 43.0328 45.5453 42.7982C45.3419 42.6111 44.8891 42.517 44.5452 42.517C44.1384 42.517 43.4822 42.7199 43.0447 43.4239C42.8577 43.7367 42.826 44.0332 42.826 44.4708V47.5661C42.826 47.8155 42.92 47.9719 43.1388 47.9719H43.7009C43.842 47.9719 43.8578 48.0036 43.8578 48.113V48.364C43.8578 48.4724 43.842 48.5353 43.7326 48.5353C43.5915 48.5353 43.1699 48.4882 42.3103 48.4882C41.4824 48.4882 40.9821 48.5353 40.8574 48.5353C40.7633 48.5353 40.7322 48.5041 40.7322 48.3942V48.113C40.7322 47.9883 40.7639 47.9719 40.9197 47.9719H41.4507C41.5918 47.9719 41.67 47.8779 41.6853 47.5814C41.7006 47.3161 41.7006 47.0349 41.7006 46.7691V43.9862C41.7006 43.6738 41.6383 43.3922 41.2637 43.1887L40.9351 43.017C40.8574 42.9699 40.8257 42.9393 40.8257 42.8928V42.7675C40.8257 42.7199 40.8886 42.6576 40.9197 42.6428L42.295 41.9389C42.4197 41.8765 42.5291 41.8453 42.5914 41.8453C42.6854 41.8453 42.7319 41.9547 42.7319 42.0641L42.7943 42.9705H42.8413C43.311 42.3294 44.2324 41.783 45.139 41.783C45.9516 41.783 46.5772 42.2523 46.9053 42.9858H46.9824C47.4516 42.377 48.3424 41.783 49.2796 41.783C49.827 41.783 50.3115 41.8765 50.6866 42.2522C51.0464 42.6269 51.4368 42.9705 51.4368 44.1748V47.6607C51.4368 47.8953 51.5774 47.973 51.7649 47.973H52.1871C52.3276 47.973 52.3593 48.0047 52.3593 48.1141V48.3799C52.3593 48.4893 52.3271 48.5363 52.2494 48.5363C52.14 48.5363 51.7026 48.4893 50.9523 48.4893C50.1709 48.4893 49.6088 48.5363 49.4989 48.5363C49.4048 48.5363 49.3742 48.4893 49.3742 48.3799V48.1141C49.3742 48.0047 49.4054 47.973 49.5776 47.973H49.968C50.1398 47.973 50.2644 47.8958 50.2808 47.6765C50.312 47.3171 50.312 46.7543 50.312 46.4103V44.0972C50.312 43.5808 50.2185 43.1279 49.8592 42.8468C49.5781 42.628 49.1713 42.5186 48.7027 42.5186C48.234 42.5186 47.5932 42.8785 47.3433 43.3309C47.1092 43.7843 47.1251 44.2071 47.1251 44.9099V47.6136C47.1251 47.8171 47.2027 47.9735 47.4373 47.9735H47.9688C48.1099 47.9735 48.1411 48.0052 48.1411 48.1146V48.3656C48.1411 48.4898 48.1094 48.5369 48.0312 48.5369C47.9218 48.5369 47.5155 48.4898 46.6401 48.4898C45.7963 48.4898 45.2653 48.5369 45.1718 48.5369C45.0936 48.5369 45.0619 48.4898 45.0619 48.3804V48.1305C45.0619 48.0052 45.0778 47.9735 45.2183 47.9735H45.6711C45.9215 47.9735 46.015 47.9112 46.015 47.7082V44.4877L46.0145 44.4861Z" fill="#282829"/>
<path d="M53.7836 48.2217C53.7054 48.1747 53.7054 48.0806 53.6896 48.0035L53.4238 46.5174C53.4085 46.4397 53.455 46.4085 53.5174 46.3932L53.7213 46.3462C53.7836 46.3303 53.8307 46.3615 53.8618 46.4397L54.2523 47.206C54.565 47.7842 54.7838 48.1747 55.6122 48.1747C56.1585 48.1747 56.8464 47.8465 56.8464 47.1114C56.8464 46.4085 56.503 46.0016 55.3306 45.6734C54.4087 45.4076 53.4867 44.9235 53.4867 43.6879C53.4867 42.6093 54.5027 41.7817 55.6751 41.7817C56.4248 41.7817 56.8311 41.9688 57.1127 42.1094C57.3467 42.2188 57.3784 42.297 57.3943 42.3916L57.6283 43.485C57.6283 43.5474 57.5967 43.5944 57.5185 43.6256L57.332 43.6879C57.2691 43.7038 57.2379 43.688 57.1904 43.6103L56.6594 42.8915C56.4723 42.5951 56.1744 42.2822 55.5652 42.2822C54.9719 42.2822 54.3627 42.6416 54.3627 43.3138C54.3627 44.2201 55.0971 44.3924 55.8626 44.6107C57.0033 44.9389 57.7224 45.4081 57.7377 46.6115C57.7229 47.8777 56.6911 48.6752 55.3628 48.6752C54.5973 48.6752 53.9717 48.3623 53.7847 48.2217H53.7836Z" fill="#282829"/>
<path d="M65.9735 42.8287C65.9735 43.0326 65.9893 45.6893 66.0046 46.6585C66.0046 46.9714 66.0675 47.2213 66.2715 47.5342C66.5208 47.8624 67.1464 48.0341 67.9278 48.0341C69.5223 48.0341 70.8194 47.3455 71.5998 46.3456C72.2565 45.5334 72.7415 44.2518 72.7415 42.8287C72.7415 41.6095 72.2089 40.2027 71.4592 39.3751C70.6466 38.4835 69.2708 37.8742 67.5363 37.8742C67.1929 37.8742 66.552 37.8742 66.2868 38.0306C66.0675 38.1712 66.0046 38.4212 65.9893 38.7652C65.9735 39.4216 65.9735 41.4689 65.9735 41.7194V42.8292V42.8287ZM64.5359 41.313C64.5359 40.9066 64.4894 38.6865 64.4582 38.4212C64.4117 38.046 64.2078 37.9841 63.7862 37.9841H62.9266C62.8494 37.9841 62.8019 37.9677 62.8019 37.8742V37.4525C62.8019 37.3901 62.8494 37.3743 62.9118 37.3743C63.1152 37.3743 63.8025 37.4208 65.209 37.4208C65.6158 37.4208 67.1786 37.3743 67.5368 37.3743C69.5524 37.3743 71.2415 37.6079 72.6163 38.7811C73.6317 39.6557 74.3503 40.9536 74.3503 42.7668C74.3503 44.5642 73.8346 45.7522 72.8028 46.8773C71.3034 48.5346 69.1456 48.5346 67.9431 48.5346C66.9594 48.5346 65.7711 48.4876 65.0684 48.4876C63.709 48.4876 63.0835 48.5346 62.8642 48.5346C62.7865 48.5346 62.7554 48.5034 62.7554 48.4252V48.0188C62.7554 47.9559 62.8019 47.9242 62.8801 47.9242H63.9262C64.2236 47.9242 64.3959 47.7995 64.427 47.5495C64.4735 47.2213 64.5359 43.7043 64.5359 42.4851V41.3125V41.313Z" fill="#282829"/>
<path d="M79.2898 43.8607C79.5862 43.8607 79.7114 43.783 79.7114 43.6424C79.7114 43.282 79.5249 42.251 78.5089 42.251C77.821 42.251 77.1653 42.7033 76.8679 43.8607H79.2903H79.2898ZM76.805 44.3295C76.7744 44.4706 76.7585 44.72 76.7585 45.0799C76.7585 46.6114 77.727 47.7688 78.977 47.7688C79.9307 47.7688 80.6022 47.2218 80.8685 46.7055C80.8996 46.6431 80.9614 46.6114 81.009 46.6278L81.2119 46.7372C81.2594 46.753 81.2901 46.7996 81.2119 46.9713C80.9313 47.597 80.1187 48.6757 78.7276 48.6757C77.8369 48.6757 76.852 48.4098 76.2746 47.5653C75.7277 46.7678 75.5867 46.1897 75.5867 45.0957C75.5867 44.4859 75.7425 43.4384 76.571 42.6098C77.2425 41.9228 78.0244 41.7822 78.8058 41.7822C80.6022 41.7822 81.1025 43.4702 81.1025 44.0795C81.1025 44.2988 80.916 44.33 80.6656 44.33H76.805V44.3295Z" fill="#282829"/>
<path d="M82.6826 48.2217C82.6044 48.1747 82.6044 48.0806 82.5886 48.0035L82.3228 46.5174C82.3065 46.4397 82.354 46.4085 82.4164 46.3932L82.6192 46.3462C82.6826 46.3303 82.7286 46.3615 82.7598 46.4397L83.1507 47.206C83.4635 47.7842 83.6822 48.1747 84.5102 48.1747C85.057 48.1747 85.7454 47.8465 85.7454 47.1114C85.7454 46.4085 85.4015 46.0016 84.2286 45.6734C83.3071 45.4076 82.3857 44.9235 82.3857 43.6879C82.3857 42.6093 83.4012 41.7817 84.5741 41.7817C85.3233 41.7817 85.7296 41.9688 86.0106 42.1094C86.2452 42.2188 86.2764 42.297 86.2922 42.3916L86.5263 43.485C86.5263 43.5474 86.4956 43.5944 86.418 43.6256L86.2304 43.6879C86.1675 43.7038 86.1364 43.688 86.0894 43.6103L85.5578 42.8915C85.3703 42.5951 85.0734 42.2822 84.4642 42.2822C83.8703 42.2822 83.2612 42.6416 83.2612 43.3138C83.2612 44.2201 83.9961 44.3924 84.7611 44.6107C85.9018 44.9389 86.6203 45.4081 86.6367 46.6115C86.6209 47.8777 85.5895 48.6752 84.2608 48.6752C83.4952 48.6752 82.8702 48.3623 82.6837 48.2217H82.6826Z" fill="#282829"/>
<path d="M88.1215 39.1717C88.1215 38.7806 88.4496 38.3589 89.0741 38.3589C89.622 38.3589 89.8878 38.7806 89.8878 39.1241C89.8878 39.531 89.6062 39.9839 88.9811 39.9839C88.6377 39.9839 88.1215 39.6716 88.1215 39.1717ZM88.8247 43.9385C88.8247 43.4074 88.7307 43.1263 87.9493 43.0015C87.8404 42.9857 87.8088 42.954 87.8088 42.8916V42.751C87.8088 42.704 87.8404 42.6728 87.9181 42.6416C88.4179 42.454 89.0123 42.2041 89.6056 41.8754C89.7303 41.813 89.809 41.7818 89.902 41.7818C89.9802 41.7818 89.9961 41.86 89.9802 41.9684C89.949 42.2347 89.949 43.2187 89.949 44.5167V46.2205C89.949 46.8298 89.949 47.3937 89.9638 47.5649C89.9955 47.8625 90.042 47.9713 90.2143 47.9713H90.9333C91.0586 47.9713 91.0897 48.0184 91.0897 48.1119V48.3782C91.0897 48.4876 91.0586 48.5347 90.9487 48.5347C90.8234 48.5347 90.1049 48.4876 89.4482 48.4876C88.5415 48.4876 87.9324 48.5347 87.7607 48.5347C87.6825 48.5347 87.636 48.503 87.636 48.4099V48.0971C87.636 48.0036 87.6825 47.9718 87.7924 47.9718H88.5579C88.7296 47.9718 88.792 47.9095 88.8078 47.6595C88.8237 47.1902 88.8237 46.7056 88.8237 46.2374V43.939L88.8247 43.9385Z" fill="#282829"/>
<path d="M96.1232 43.9702C96.1232 43.2826 95.9822 42.8757 95.7011 42.5639C95.4977 42.3604 95.1849 42.2193 94.9508 42.2193C94.5916 42.2193 94.2159 42.2822 93.8408 42.6569C93.3415 43.1885 93.2792 43.9078 93.2792 44.5018C93.2792 45.0335 93.4504 45.5175 93.7785 45.8616C94.0601 46.1274 94.3411 46.2526 94.7163 46.2526C95.7793 46.2526 96.1227 44.9547 96.1227 43.9702H96.1232ZM97.5761 50.6289C97.5761 49.7068 96.8729 49.0033 95.3106 49.1122L93.8102 49.2221C93.3257 49.3469 92.5601 49.8785 92.5601 50.7219C92.5601 51.113 92.8576 51.5818 93.1693 51.8011C93.6855 52.1604 94.2476 52.2387 95.3571 52.2387C95.9357 52.2387 97.6543 51.8318 97.5761 50.6289ZM92.4196 52.2387C91.8564 51.8952 91.6223 51.4888 91.6223 50.9725C91.6223 50.0978 92.5131 49.4256 93.2628 49.0974V49.0351C92.6066 48.8945 92.2162 48.4088 92.2162 47.9406C92.2162 47.1902 93.0752 46.659 93.6226 46.4556V46.4239C93.0129 46.158 92.1691 45.4388 92.1691 44.0478C92.1691 43.0321 93.0752 41.7817 94.842 41.7817C96.0292 41.7817 96.6542 42.501 96.8101 42.6881C97.2322 42.3916 97.7637 42.0782 98.2794 42.0782C98.795 42.0782 99.0444 42.4228 99.0138 42.7351C99.0138 43.0326 98.7633 43.3138 98.4046 43.3138C98.1388 43.3138 97.9824 43.1885 97.8572 43.0786C97.7637 43.0173 97.6538 42.938 97.5291 42.938C97.4203 42.938 97.2327 42.938 97.0293 43.0326C97.1545 43.3455 97.2634 43.689 97.2634 44.2201C97.2634 44.8295 97.0922 45.424 96.6854 45.9081C96.2791 46.3615 95.3883 46.6897 94.8726 46.6897C94.5287 46.6897 94.3105 46.6744 94.0754 46.6115C93.7626 46.7367 93.247 47.0496 93.247 47.4866C93.247 48.1282 94.0278 48.0806 95.0755 48.0183C96.3573 47.9559 97.1376 48.0965 97.7637 48.5811C98.4352 49.0805 98.5139 49.7068 98.5287 50.082C98.5287 50.8165 98.2635 51.4264 97.4826 52.0051C97.0753 52.301 96.138 52.7391 94.8103 52.7391C94.0601 52.7391 93.1693 52.6614 92.4196 52.2392V52.2387Z" fill="#282829"/>
<path d="M105.985 47.6435C105.985 47.894 106.126 47.9712 106.328 47.9712H106.828C106.969 47.9712 107 48.0187 107 48.1123V48.3628C107 48.4717 106.968 48.5346 106.875 48.5346C106.766 48.5346 106.281 48.4875 105.391 48.4875C104.594 48.4875 104.093 48.5346 103.984 48.5346C103.89 48.5346 103.86 48.4875 103.86 48.3628V48.1123C103.86 48.0029 103.907 47.9712 104.063 47.9712H104.516C104.687 47.9712 104.813 47.894 104.828 47.6118C104.844 47.2049 104.86 46.7055 104.86 46.2991V44.2359C104.86 43.6102 104.86 43.1573 104.406 42.8286C104.032 42.548 103.657 42.548 103.266 42.548C103.016 42.548 102.469 42.6569 102.001 43.1573C101.688 43.5008 101.641 43.9236 101.641 44.2201V47.4559C101.641 47.8782 101.688 47.9717 102.016 47.9717H102.407C102.532 47.9717 102.563 48.0193 102.563 48.1281V48.394C102.563 48.488 102.532 48.5351 102.453 48.5351C102.344 48.5351 101.922 48.488 101.094 48.488C100.297 48.488 99.7966 48.5351 99.7031 48.5351C99.626 48.5351 99.5938 48.488 99.5938 48.394V48.1128C99.5938 48.0193 99.626 47.9717 99.7501 47.9717H100.203C100.406 47.9717 100.516 47.9247 100.516 47.6589V44.0018C100.516 43.5331 100.266 43.2667 99.8748 43.0791L99.7501 43.0167C99.6413 42.9697 99.626 42.9232 99.626 42.8762V42.7979C99.626 42.7197 99.6878 42.6732 99.766 42.6415L101.11 41.8916C101.235 41.8287 101.328 41.7822 101.391 41.7822C101.469 41.7822 101.501 41.8446 101.516 41.9693L101.625 42.9232H101.656C102.11 42.3609 103.017 41.7822 103.798 41.7822C104.267 41.7822 104.752 41.8763 105.126 42.1252C105.596 42.4381 105.986 43.2197 105.986 43.6107V47.6441L105.985 47.6435Z" fill="#282829"/>
</svg>
