<svg width="266" height="131" viewBox="0 0 266 131" fill="none" xmlns="http://www.w3.org/2000/svg">
<path d="M80.0565 54.3099H80.2442C80.6171 52.7201 94.535 12.8068 94.9092 8.87961C95.0024 8.13196 94.3486 6.54336 93.5082 5.42249C92.6666 4.29925 91.4533 3.64609 89.7726 3.64609H87.4368C86.9694 3.64609 86.8774 3.45948 86.8774 2.89845V0.656698C86.8774 0.282286 86.9694 0.00118227 87.5312 0.00118227C88.3704 0.00118227 91.641 0.282288 98.9257 0.282288C106.771 0.282288 110.323 0.00118227 111.256 0.00118227C111.816 0.00118227 111.91 0.282286 111.91 0.656698V2.99176C111.91 3.36617 111.816 3.64609 111.256 3.64609H107.519C105.185 3.64609 104.343 5.70241 104.904 7.38668L119.477 54.3099H119.663C120.69 51.317 134.234 11.8714 134.234 6.54337C134.234 5.04808 133.488 3.64609 130.967 3.64609H128.445C127.883 3.64609 127.791 3.36617 127.791 2.80396V0.656698C127.791 0.282286 127.883 0.00118227 128.539 0.00118227C129.471 0.00118227 132.742 0.282288 138.533 0.282288C143.764 0.282288 146.472 0.00118227 147.218 0.00118227C147.781 0.00118227 147.873 0.187797 147.873 0.656698V2.99176C147.873 3.36617 147.873 3.64609 147.218 3.64609H144.979C143.392 3.64609 142.082 4.67366 141.241 6.17013C140.495 7.47762 120.972 61.412 119.104 65.899C118.638 66.9266 118.169 68.3286 117.142 68.3286C116.022 68.3286 115.555 67.5809 115.089 66.2722L97.8068 14.9553H97.6203C96.7799 17.4793 79.7803 65.5258 79.2197 66.5533C78.7523 67.4864 78.1916 68.3286 77.3525 68.3286C76.6042 68.3286 76.0447 67.9553 75.6705 66.8333L54.8409 7.01108C53.9061 4.39374 52.5995 3.64491 50.8232 3.64491H47.6471C47.1808 3.64491 47.0864 3.2705 47.0864 2.89727V0.655516C47.0864 0.186614 47.1808 0 47.8335 0C48.5807 0 51.4771 0.281105 57.8282 0.281105C64.5535 0.281105 68.3847 0 69.3183 0C69.9721 0 70.0642 0.281104 70.0642 0.559846V2.89727C70.0642 3.36499 69.9721 3.64491 69.3183 3.64491H67.7308C65.3029 3.64491 64.4602 4.95359 65.022 7.01108L80.0612 54.3087L80.0565 54.3099Z" fill="#FEFEFE"/>
<path d="M168.24 32.6236C168.24 33.839 168.333 49.7296 168.425 55.5254C168.425 57.3951 168.799 58.8915 170.014 60.7601C171.509 62.7219 175.245 63.7518 179.916 63.7518C189.444 63.7518 197.195 59.638 201.866 53.6569C205.791 48.7966 208.686 41.13 208.686 32.6236C208.686 25.3338 205.507 16.9207 201.026 11.9659C196.168 6.63793 187.951 2.99184 177.581 2.99184C175.526 2.99184 171.697 2.99183 170.107 3.92609C168.801 4.76705 168.426 6.26352 168.334 8.32102C168.241 12.2459 168.241 24.4928 168.241 25.9857V32.6224L168.24 32.6236ZM159.646 23.5574C159.646 21.1266 159.368 7.85329 159.18 6.2647C158.9 4.02176 157.686 3.64735 155.164 3.64735H150.025C149.557 3.64735 149.279 3.55522 149.279 2.99301V0.470157C149.279 0.0957447 149.557 0.00244141 149.931 0.00244141C151.146 0.00244141 155.256 0.283547 163.663 0.283547C166.089 0.283547 175.433 0.00244141 177.58 0.00244141C189.629 0.00244141 199.718 1.40442 207.938 8.41432C214.007 13.649 218.306 21.4066 218.306 32.2504C218.306 43.0008 215.222 50.1041 209.058 56.834C200.09 66.7424 187.2 66.7424 180.007 66.7424C174.124 66.7424 167.024 66.4625 162.82 66.4625C154.695 66.4625 150.958 66.7424 149.649 66.7424C149.184 66.7424 148.997 66.5558 148.997 66.0893V63.6597C148.997 63.2829 149.278 63.0975 149.745 63.0975H156.002C157.776 63.0975 158.804 62.3498 158.99 60.8546C159.272 58.8927 159.645 37.8606 159.645 30.5685V23.5597L159.646 23.5574Z" fill="#FEFEFE"/>
<path d="M13.6642 115.166H13.7409C13.8967 114.508 19.6659 97.9603 19.8205 96.3339C19.8595 96.0232 19.5892 95.3642 19.241 94.9C18.8916 94.4346 18.3877 94.1642 17.6925 94.1642H16.7235C16.5299 94.1642 16.4921 94.0862 16.4921 93.8547V92.924C16.4921 92.7693 16.5299 92.6523 16.7624 92.6523C17.1106 92.6523 18.4656 92.7693 21.4859 92.7693C24.7411 92.7693 26.2118 92.6523 26.5989 92.6523C26.8314 92.6523 26.8704 92.7693 26.8704 92.924V93.8925C26.8704 94.0472 26.8314 94.1642 26.5989 94.1642H25.0504C24.0825 94.1642 23.7343 95.0158 23.9657 95.7126L30.0064 115.166H30.0843C30.5104 113.925 36.1262 97.5729 36.1262 95.3642C36.1262 94.7441 35.8146 94.1642 34.7712 94.1642H33.7255C33.4918 94.1642 33.4552 94.0472 33.4552 93.8158V92.924C33.4552 92.7693 33.4918 92.6523 33.7632 92.6523C34.1504 92.6523 35.5053 92.7693 37.9072 92.7693C40.0754 92.7693 41.199 92.6523 41.5094 92.6523C41.742 92.6523 41.7797 92.7303 41.7797 92.924V93.8925C41.7797 94.0472 41.7797 94.1642 41.5094 94.1642H40.5806C39.922 94.1642 39.3802 94.5894 39.032 95.2095C38.7216 95.7516 30.6284 118.111 29.8529 119.97C29.6594 120.398 29.4658 120.979 29.0409 120.979C28.5759 120.979 28.3811 120.67 28.1887 120.126L21.0244 98.852H20.9477C20.5995 99.8973 13.552 119.816 13.3195 120.242C13.1259 120.629 12.8934 120.979 12.5452 120.979C12.2348 120.979 12.0035 120.824 11.8477 120.359L3.21273 95.5579C2.8256 94.4736 2.28385 94.1642 1.54853 94.1642H0.232513C0.0389459 94.1642 0 94.0094 0 93.8547V92.924C0 92.7303 0.0389488 92.6523 0.309234 92.6523C0.619649 92.6523 1.82 92.7693 4.45321 92.7693C7.23986 92.7693 8.82971 92.6523 9.21684 92.6523C9.48831 92.6523 9.52726 92.7693 9.52726 92.885V93.8547C9.52726 94.0472 9.48831 94.1642 9.21684 94.1642H8.55825C7.55264 94.1642 7.20328 94.7063 7.43461 95.5579L13.6701 115.166H13.6642Z" fill="#FEFEFE"/>
<path d="M44.4969 97.1088C44.4969 96.1391 45.3101 95.095 46.8587 95.095C48.2136 95.095 48.8711 96.1391 48.8711 96.9918C48.8711 97.9993 48.1747 99.1226 46.6262 99.1226C45.774 99.1226 44.4969 98.3489 44.4969 97.1088ZM46.239 108.927C46.239 107.61 46.0065 106.913 44.0709 106.604C43.8006 106.565 43.7227 106.486 43.7227 106.331V105.982C43.7227 105.868 43.8006 105.79 43.9941 105.712C45.2323 105.247 46.7041 104.628 48.1759 103.813C48.4863 103.658 48.681 103.581 48.9124 103.581C49.1059 103.581 49.1437 103.775 49.1059 104.044C49.0292 104.703 49.0292 107.145 49.0292 110.362V114.586C49.0292 116.096 49.0292 117.494 49.0658 117.919C49.1437 118.656 49.2594 118.925 49.6867 118.925H51.4677C51.7781 118.925 51.8548 119.042 51.8548 119.274V119.933C51.8548 120.204 51.7781 120.321 51.5066 120.321C51.195 120.321 49.4152 120.204 47.7876 120.204C45.5427 120.204 44.0319 120.321 43.6058 120.321C43.4123 120.321 43.2954 120.243 43.2954 120.012V119.236C43.2954 119.004 43.4123 118.925 43.6825 118.925H45.5804C46.0053 118.925 46.16 118.77 46.1989 118.151C46.2379 116.989 46.2379 115.788 46.2379 114.625V108.928L46.239 108.927Z" fill="#FEFEFE"/>
<path d="M59.1359 108.656C59.1359 110.67 59.1359 116.523 59.1749 117.724C59.2126 118.383 59.3684 118.925 60.1805 118.925H61.9237C62.2719 118.925 62.3486 119.041 62.3486 119.274V119.933C62.3486 120.164 62.2719 120.32 62.1173 120.32C61.8458 120.32 60.1427 120.204 57.7408 120.204C55.2634 120.204 53.7137 120.32 53.3655 120.32C53.1719 120.32 53.0952 120.164 53.0952 119.933V119.274C53.0952 119.003 53.1719 118.925 53.598 118.925H55.4558C55.8819 118.925 56.269 118.655 56.3079 117.957C56.3457 116.755 56.3457 110.09 56.3457 107.843V105.401C56.3457 102.651 56.3079 99.1237 56.23 98.1174C56.1521 96.7993 55.5325 96.1792 54.2944 95.7918L53.5201 95.5213C53.3265 95.4434 53.2876 95.4044 53.2876 95.3276V95.017C53.2876 94.9012 53.4033 94.8233 53.6358 94.7453C54.9919 94.1253 56.734 93.4284 58.1669 92.4989C58.5151 92.2662 58.7476 92.1882 58.9801 92.1882C59.2504 92.1882 59.3283 92.3831 59.2893 92.8863C59.2504 95.017 59.1347 103.078 59.1347 105.209V108.659L59.1359 108.656Z" fill="#FEFEFE"/>
<path d="M69.245 108.656C69.245 110.67 69.245 116.523 69.2839 117.724C69.3205 118.383 69.4775 118.925 70.2895 118.925H72.0328C72.381 118.925 72.4577 119.041 72.4577 119.274V119.933C72.4577 120.164 72.381 120.32 72.2264 120.32C71.9549 120.32 70.2506 120.204 67.8499 120.204C65.3725 120.204 63.8216 120.32 63.4734 120.32C63.2798 120.32 63.2031 120.164 63.2031 119.933V119.274C63.2031 119.003 63.2798 118.925 63.7059 118.925H65.5649C65.9898 118.925 66.3769 118.655 66.4159 117.957C66.4536 116.755 66.4536 110.09 66.4536 107.843V105.401C66.4536 102.651 66.4159 99.1237 66.338 98.1174C66.2601 96.7993 65.6416 96.1792 64.4023 95.7918L63.628 95.5213C63.4345 95.4434 63.3955 95.4044 63.3955 95.3276V95.017C63.3955 94.9012 63.5112 94.8233 63.7437 94.7453C65.0998 94.1253 66.8431 93.4284 68.276 92.4989C68.623 92.2662 68.8567 92.1882 69.0892 92.1882C69.3595 92.1882 69.4374 92.3831 69.3984 92.8863C69.3595 95.017 69.2438 103.078 69.2438 105.209V108.659L69.245 108.656Z" fill="#FEFEFE"/>
<path d="M74.8605 97.1088C74.8605 96.1391 75.6737 95.095 77.2222 95.095C78.5772 95.095 79.2346 96.1391 79.2346 96.9918C79.2346 97.9993 78.5394 99.1226 76.9909 99.1226C76.1376 99.1226 74.8605 98.3489 74.8605 97.1088ZM76.6038 108.927C76.6038 107.61 76.3701 106.913 74.4344 106.604C74.1641 106.565 74.0874 106.486 74.0874 106.331V105.982C74.0874 105.868 74.1641 105.79 74.3565 105.712C75.5958 105.247 77.0676 104.628 78.5406 103.813C78.8499 103.658 79.0446 103.581 79.2748 103.581C79.4683 103.581 79.5085 103.775 79.4683 104.044C79.3928 104.703 79.3928 107.145 79.3928 110.362V114.586C79.3928 116.096 79.3928 117.494 79.4294 117.919C79.5085 118.656 79.6253 118.925 80.0502 118.925H81.8313C82.1417 118.925 82.2184 119.042 82.2184 119.274V119.933C82.2184 120.204 82.1417 120.321 81.8702 120.321C81.5598 120.321 79.7799 120.204 78.1523 120.204C75.9062 120.204 74.3955 120.321 73.9694 120.321C73.7758 120.321 73.6602 120.243 73.6602 120.012V119.236C73.6602 119.004 73.7758 118.925 74.0473 118.925H75.944C76.3689 118.925 76.5259 118.77 76.5637 118.151C76.6026 116.989 76.6026 115.788 76.6026 114.625V108.928L76.6038 108.927Z" fill="#FEFEFE"/>
<path d="M93.1786 111.678C91.7846 112.723 87.99 113.499 87.99 116.715C87.99 118.149 88.841 118.847 90.0036 118.847C91.1249 118.847 93.1786 117.491 93.1786 116.444V111.678ZM96.0053 115.592C96.0053 117.799 96.4704 118.5 97.1667 118.5C97.7864 118.5 98.3281 118.189 98.5217 117.918C98.6775 117.724 98.7542 117.646 98.9088 117.763L99.296 118.072C99.4128 118.189 99.4895 118.383 99.2582 118.769C98.9478 119.351 98.2125 120.668 96.2367 120.668C94.8428 120.668 93.8372 119.661 93.4866 118.072H93.4099C92.5967 119.041 91.3196 119.856 89.5751 120.436C88.8398 120.668 88.1435 120.668 87.2925 120.668C86.3624 120.668 84.9685 119.895 84.9685 117.452C84.9685 115.669 85.7817 114.119 88.841 112.763C90.5855 111.988 92.5979 111.058 93.2175 110.516V108.035C93.1396 107.378 93.1018 106.37 92.6746 105.865C92.2509 105.362 91.4754 105.014 90.353 105.014C89.5775 105.014 88.3783 105.323 87.8366 105.827C87.2948 106.331 87.643 106.913 87.643 107.61C87.643 108.966 87.178 109.819 85.5905 109.819C84.9709 109.819 84.6616 109.469 84.6616 108.579C84.6616 107.337 85.7463 105.865 87.3326 104.935C88.959 103.966 90.3152 103.579 92.0585 103.579C93.8773 103.579 94.6126 104.122 95.1567 104.627C95.9699 105.439 96.0077 106.33 96.0077 107.377V115.591L96.0053 115.592Z" fill="#FEFEFE"/>
<path d="M114.016 110.283C114.016 107.415 113.474 106.679 112.854 106.097C112.35 105.633 111.228 105.4 110.377 105.4C109.37 105.4 107.744 105.903 106.659 107.648C106.195 108.423 106.117 109.158 106.117 110.243V117.916C106.117 118.535 106.35 118.923 106.891 118.923H108.284C108.634 118.923 108.672 119.001 108.672 119.271V119.892C108.672 120.162 108.634 120.318 108.362 120.318C108.014 120.318 106.968 120.202 104.838 120.202C102.786 120.202 101.545 120.318 101.236 120.318C101.004 120.318 100.926 120.241 100.926 119.969V119.271C100.926 118.962 101.004 118.923 101.39 118.923H102.707C103.055 118.923 103.25 118.69 103.288 117.954C103.327 117.296 103.327 116.599 103.327 115.939V109.042C103.327 108.268 103.172 107.57 102.243 107.066L101.429 106.64C101.236 106.523 101.159 106.447 101.159 106.331V106.02C101.159 105.903 101.313 105.749 101.39 105.711L104.8 103.966C105.109 103.812 105.381 103.735 105.535 103.735C105.768 103.735 105.883 104.006 105.883 104.277L106.038 106.523H106.154C107.316 104.935 109.601 103.579 111.846 103.579C113.86 103.579 115.41 104.741 116.223 106.562H116.415C117.578 105.052 119.786 103.579 122.108 103.579C123.464 103.579 124.664 103.81 125.594 104.741C126.484 105.671 127.452 106.522 127.452 109.507V118.148C127.452 118.73 127.8 118.923 128.266 118.923H129.312C129.66 118.923 129.738 119.001 129.738 119.271V119.93C129.738 120.202 129.66 120.318 129.467 120.318C129.195 120.318 128.112 120.202 126.25 120.202C124.315 120.202 122.921 120.318 122.649 120.318C122.417 120.318 122.34 120.202 122.34 119.93V119.271C122.34 119.001 122.417 118.923 122.843 118.923H123.811C124.237 118.923 124.546 118.73 124.585 118.187C124.663 117.296 124.663 115.901 124.663 115.046V109.312C124.663 108.033 124.43 106.91 123.541 106.212C122.843 105.669 121.836 105.398 120.675 105.398C119.513 105.398 117.926 106.29 117.305 107.412C116.726 108.536 116.765 109.582 116.765 111.326V118.03C116.765 118.534 116.958 118.922 117.538 118.922H118.855C119.203 118.922 119.281 118.999 119.281 119.27V119.891C119.281 120.201 119.203 120.316 119.009 120.316C118.738 120.316 117.732 120.201 115.562 120.201C113.472 120.201 112.154 120.316 111.923 120.316C111.729 120.316 111.65 120.201 111.65 119.929V119.309C111.65 118.999 111.689 118.922 112.039 118.922H113.16C113.78 118.922 114.012 118.767 114.012 118.264V110.28L114.016 110.283Z" fill="#FEFEFE"/>
<path d="M133.267 119.544C133.074 119.428 133.074 119.196 133.035 119.003L132.377 115.32C132.338 115.127 132.454 115.05 132.609 115.011L133.113 114.895C133.267 114.855 133.384 114.934 133.461 115.127L134.429 117.026C135.203 118.46 135.745 119.427 137.798 119.427C139.152 119.427 140.858 118.614 140.858 116.792C140.858 115.05 140.007 114.042 137.101 113.227C134.817 112.568 132.532 111.368 132.532 108.306C132.532 105.632 135.048 103.578 137.953 103.578C139.812 103.578 140.817 104.042 141.516 104.39C142.097 104.662 142.175 104.856 142.214 105.091L142.794 107.801C142.794 107.956 142.717 108.073 142.523 108.15L142.059 108.304C141.903 108.345 141.827 108.304 141.71 108.111L140.394 106.328C139.93 105.594 139.192 104.818 137.683 104.818C136.212 104.818 134.701 105.71 134.701 107.376C134.701 109.621 136.52 110.049 138.418 110.591C141.246 111.405 143.028 112.567 143.066 115.552C143.028 118.691 140.472 120.667 137.18 120.667C135.283 120.667 133.733 119.894 133.268 119.543L133.267 119.544Z" fill="#FEFEFE"/>
<path d="M163.474 106.175C163.474 106.679 163.513 113.265 163.551 115.67C163.551 116.443 163.707 117.065 164.211 117.84C164.829 118.653 166.379 119.08 168.316 119.08C172.267 119.08 175.48 117.373 177.416 114.893C179.042 112.88 180.244 109.702 180.244 106.174C180.244 103.151 178.925 99.6634 177.066 97.6106C175.054 95.4019 171.645 93.8901 167.346 93.8901C166.493 93.8901 164.907 93.8901 164.248 94.2775C163.706 94.6259 163.55 95.246 163.512 96.0976C163.473 97.7252 163.473 102.802 163.473 103.422V106.173L163.474 106.175ZM159.912 102.417C159.912 101.409 159.796 95.9051 159.719 95.2472C159.603 94.3177 159.099 94.163 158.053 94.163H155.924C155.732 94.163 155.615 94.1228 155.615 93.8913V92.846C155.615 92.6913 155.732 92.6511 155.886 92.6511C156.39 92.6511 158.092 92.7681 161.579 92.7681C162.585 92.7681 166.458 92.6511 167.347 92.6511C172.343 92.6511 176.527 93.2322 179.933 96.1401C182.448 98.3087 184.232 101.526 184.232 106.021C184.232 110.478 182.954 113.422 180.396 116.213C176.68 120.321 171.334 120.321 168.353 120.321C165.916 120.321 162.971 120.205 161.23 120.205C157.862 120.205 156.312 120.321 155.769 120.321C155.576 120.321 155.499 120.244 155.499 120.051V119.043C155.499 118.887 155.615 118.809 155.808 118.809H158.401C159.137 118.809 159.564 118.5 159.642 117.881C159.757 117.067 159.912 108.347 159.912 105.326V102.419V102.417Z" fill="#FEFEFE"/>
<path d="M196.472 108.734C197.208 108.734 197.517 108.541 197.517 108.192C197.517 107.301 197.055 104.742 194.536 104.742C192.832 104.742 191.206 105.864 190.469 108.734H196.471H196.472ZM190.316 109.896C190.239 110.244 190.2 110.864 190.2 111.755C190.2 115.553 192.6 118.42 195.698 118.42C198.061 118.42 199.726 117.065 200.385 115.786C200.462 115.631 200.616 115.553 200.733 115.592L201.236 115.864C201.353 115.903 201.43 116.018 201.236 116.444C200.54 117.994 198.527 120.668 195.078 120.668C192.873 120.668 190.432 120.011 189 117.918C187.645 115.942 187.297 114.507 187.297 111.796C187.297 110.284 187.683 107.687 189.735 105.633C191.4 103.93 193.338 103.581 195.274 103.581C199.726 103.581 200.965 107.766 200.965 109.277C200.965 109.82 200.502 109.897 199.882 109.897H190.316V109.896Z" fill="#FEFEFE"/>
<path d="M204.88 119.544C204.686 119.428 204.686 119.196 204.647 119.003L203.988 115.32C203.948 115.127 204.065 115.05 204.22 115.011L204.723 114.895C204.88 114.855 204.994 114.934 205.071 115.127L206.039 117.026C206.814 118.46 207.356 119.427 209.408 119.427C210.763 119.427 212.47 118.614 212.47 116.792C212.47 115.05 211.618 114.042 208.711 113.227C206.428 112.568 204.143 111.368 204.143 108.306C204.143 105.632 206.659 103.578 209.565 103.578C211.423 103.578 212.429 104.042 213.126 104.39C213.708 104.662 213.785 104.856 213.824 105.091L214.404 107.801C214.404 107.956 214.329 108.073 214.135 108.15L213.67 108.304C213.514 108.345 213.438 108.304 213.322 108.111L212.005 106.328C211.54 105.594 210.803 104.818 209.295 104.818C207.823 104.818 206.312 105.71 206.312 107.376C206.312 109.621 208.132 110.049 210.03 110.591C212.857 111.405 214.638 112.567 214.677 115.552C214.638 118.691 212.083 120.667 208.79 120.667C206.893 120.667 205.343 119.894 204.881 119.543L204.88 119.544Z" fill="#FEFEFE"/>
<path d="M218.358 97.1088C218.358 96.1391 219.171 95.095 220.718 95.095C222.074 95.095 222.733 96.1391 222.733 96.9918C222.733 97.9993 222.035 99.1226 220.487 99.1226C219.636 99.1226 218.358 98.3489 218.358 97.1088ZM220.1 108.927C220.1 107.61 219.867 106.913 217.932 106.604C217.661 106.565 217.583 106.486 217.583 106.331V105.982C217.583 105.868 217.661 105.79 217.855 105.712C219.093 105.247 220.565 104.628 222.037 103.813C222.346 103.658 222.541 103.581 222.772 103.581C222.965 103.581 223.004 103.775 222.965 104.044C222.889 104.703 222.889 107.145 222.889 110.362V114.586C222.889 116.096 222.889 117.494 222.926 117.919C223.004 118.656 223.12 118.925 223.546 118.925H225.327C225.639 118.925 225.715 119.042 225.715 119.274V119.933C225.715 120.204 225.639 120.321 225.367 120.321C225.056 120.321 223.276 120.204 221.648 120.204C219.402 120.204 217.891 120.321 217.466 120.321C217.272 120.321 217.157 120.243 217.157 120.012V119.236C217.157 119.004 217.272 118.925 217.543 118.925H219.441C219.866 118.925 220.021 118.77 220.06 118.151C220.099 116.989 220.099 115.788 220.099 114.625V108.928L220.1 108.927Z" fill="#FEFEFE"/>
<path d="M238.185 109.004C238.185 107.301 237.837 106.292 237.14 105.517C236.636 105.014 235.862 104.663 235.281 104.663C234.391 104.663 233.461 104.819 232.532 105.749C231.294 107.067 231.14 108.85 231.14 110.323C231.14 111.639 231.565 112.839 232.378 113.695C233.075 114.353 233.772 114.664 234.701 114.664C237.334 114.664 238.186 111.446 238.186 109.004H238.185ZM241.787 125.512C241.787 123.227 240.044 121.482 236.172 121.753L232.455 122.024C231.254 122.334 229.356 123.652 229.356 125.744C229.356 126.713 230.092 127.876 230.866 128.418C232.143 129.309 233.537 129.503 236.286 129.503C237.719 129.503 241.979 128.496 241.786 125.511L241.787 125.512ZM229.009 129.504C227.614 128.653 227.035 127.645 227.035 126.365C227.035 124.196 229.241 122.529 231.101 121.715V121.56C229.474 121.212 228.507 120.009 228.507 118.847C228.507 116.988 230.636 115.67 231.992 115.167V115.089C230.482 114.43 228.391 112.646 228.391 109.197C228.391 106.681 230.636 103.58 235.012 103.58C237.955 103.58 239.503 105.362 239.89 105.827C240.937 105.091 242.253 104.315 243.533 104.315C244.81 104.315 245.428 105.169 245.352 105.942C245.352 106.679 244.732 107.376 243.842 107.376C243.183 107.376 242.796 107.067 242.486 106.794C242.254 106.64 241.983 106.445 241.673 106.445C241.403 106.445 240.938 106.445 240.434 106.679C240.745 107.454 241.015 108.306 241.015 109.624C241.015 111.134 240.59 112.61 239.582 113.81C238.577 114.934 236.367 115.747 235.09 115.747C234.238 115.747 233.697 115.709 233.115 115.553C232.341 115.864 231.063 116.638 231.063 117.723C231.063 119.311 232.999 119.194 235.594 119.04C238.771 118.885 240.705 119.235 242.256 120.435C243.92 121.674 244.113 123.224 244.151 124.156C244.151 125.976 243.494 127.489 241.559 128.923C240.55 129.658 238.226 130.743 234.937 130.743C233.079 130.743 230.871 130.55 229.013 129.503L229.009 129.504Z" fill="#FEFEFE"/>
<path d="M262.623 118.11C262.623 118.731 262.971 118.924 263.474 118.924H264.713C265.061 118.924 265.139 119.041 265.139 119.272V119.893C265.139 120.163 265.061 120.319 264.83 120.319C264.56 120.319 263.358 120.202 261.151 120.202C259.178 120.202 257.936 120.319 257.666 120.319C257.433 120.319 257.356 120.202 257.356 119.893V119.272C257.356 119.002 257.472 118.924 257.859 118.924H258.982C259.407 118.924 259.718 118.731 259.755 118.032C259.795 117.025 259.834 115.787 259.834 114.777V109.662C259.834 108.112 259.834 106.989 258.71 106.174C257.781 105.477 256.852 105.477 255.885 105.477C255.266 105.477 253.91 105.747 252.747 106.987C251.972 107.84 251.856 108.887 251.856 109.621V117.642C251.856 118.689 251.972 118.921 252.785 118.921H253.754C254.065 118.921 254.141 119.038 254.141 119.309V119.967C254.141 120.199 254.065 120.316 253.869 120.316C253.6 120.316 252.554 120.199 250.5 120.199C248.526 120.199 247.285 120.316 247.054 120.316C246.861 120.316 246.782 120.199 246.782 119.967V119.27C246.782 119.038 246.861 118.921 247.169 118.921H248.293C248.795 118.921 249.066 118.805 249.066 118.145V109.079C249.066 107.917 248.448 107.258 247.479 106.793L247.169 106.638C246.9 106.521 246.861 106.405 246.861 106.289V106.096C246.861 105.901 247.015 105.786 247.208 105.708L250.538 103.849C250.848 103.692 251.08 103.576 251.235 103.576C251.429 103.576 251.508 103.731 251.545 104.041L251.816 106.405H251.893C253.016 105.011 255.265 103.576 257.199 103.576C258.361 103.576 259.562 103.81 260.491 104.429C261.653 105.204 262.62 107.141 262.62 108.111V118.109L262.623 118.11Z" fill="#FEFEFE"/>
</svg>
